<svg width="14" height="8" viewBox="0 0 14 8" fill="none" xmlns="http://www.w3.org/2000/svg">
<path d="M11.5486 0H2.69588C1.70104 0 1.20362 0 0.956615 0.158723C0.598075 0.38912 0.424956 0.821438 0.525375 1.23562C0.594555 1.52096 0.954493 1.86429 1.67437 2.55094L1.67437 2.55094L6.3149 6.97729C6.63882 7.28626 6.80078 7.44075 6.97775 7.51236C7.2339 7.61601 7.52153 7.60905 7.77237 7.49312C7.94566 7.41303 8.09996 7.25089 8.40855 6.92661L12.6207 2.50026C13.2672 1.82091 13.5904 1.48124 13.6478 1.19972C13.7311 0.791164 13.5521 0.373817 13.1988 0.152499C12.9553 0 12.4864 0 11.5486 0Z" fill="white" fill-opacity="0.3"/>
</svg>
